<svg xmlns="http://www.w3.org/2000/svg" width="1440" height="961" fill="none" xmlns:v="https://vecta.io/nano"><style><![CDATA[.B{stroke-opacity:.4}.C{mask:url(#A)}]]></style><g clip-path="url(#D)"><path fill="#000" d="M0 0h1440v961H0z"/><ellipse opacity=".3" cx="719" cy="527" rx="1345" ry="117" fill="url(#B)" fill-opacity=".4"/><mask id="A" fill="#fff"><path d="M521.231 240.192L1678.2-286.667l1255.47 400.766-381.05 774.547-1490.97 77.93-540.419-726.384z"/><path d="M514.732 228.603L1685.87-286.893l1238.9 411.894-405.45 770.061-1489.49 64.03-515.098-730.489z"/><path d="M508.583 217.101L1693.47-286.913l1222.01 422.854-429.64 765.353-1487.54 50.16-489.717-734.353z"/><path d="M502.779 205.693L1700.99-286.725 2905.8 146.917l-453.6 760.424-1485.149 36.326-464.272-737.974z"/><path d="M497.316 194.382L1708.44-286.33l1187.29 444.257-477.34 755.277-1482.299 22.53-438.775-741.352z"/><path d="M492.19 183.169L1715.8-285.729l1169.47 454.693-500.84 749.914-1479.004 8.78L492.19 183.169z"/><path d="M487.4 172.056l1235.67-456.983 1151.35 464.951-524.1 744.338-1475.258-4.925L487.4 172.056z"/><path d="M482.939 161.047L1730.24-283.921l1132.93 475.026-547.1 738.55-1471.069-18.576-362.062-750.032z"/><path d="M478.8 150.149l1258.5-432.861 1114.24 484.917-569.86 732.555-1466.437-32.173L478.8 150.149z"/><path d="M474.983 139.359L1744.25-281.303l1095.27 494.62-592.36 726.354-1461.363-45.709-310.814-754.603z"/><path d="M471.483 128.682L1751.09-279.696l1076.02 504.133-614.59 719.95-1455.854-59.18-285.183-756.525z"/><path d="M468.292 118.125L1757.79-277.889l1056.52 513.455-636.54 713.346-1449.92-72.583-259.558-758.204z"/><path d="M465.409 107.683L1764.37-275.888l1036.75 522.582-658.21 706.544-1443.552-85.913-233.949-759.642z"/><path d="M462.826 97.366L1770.81-273.69l1016.73 531.513-679.6 699.549-1436.753-99.168L462.826 97.366z"/><path d="M460.539 87.173L1777.1-271.298l996.48 540.245-700.7 692.361L643.343 848.966 460.539 87.173z"/><path d="M458.546 77.106L1783.25-268.716l975.99 548.776-721.5 684.986L615.831 839.613 458.546 77.106z"/><path d="M456.838 67.17L1789.24-265.943l955.27 557.105-742 677.424L588.651 830.152 456.838 67.17z"/><path d="M455.41 57.368l1339.65-320.349 934.35 565.231-762.2 669.68L561.805 820.584 455.41 57.368z"/><path d="M454.261 47.699L1800.72-259.833l913.2 573.149-782.07 661.757L535.3 810.913 454.261 47.699z"/><path d="M453.38 38.169L1806.2-256.499l891.85 580.859-801.63 653.658L509.135 801.142 453.38 38.169z"/><path d="M452.769 28.774l1358.741-281.76 870.3 588.36-820.87 645.386L483.316 791.271 452.769 28.774z"/><path d="M452.414 19.527L1816.63-249.286l848.56 595.649-839.78 636.944L457.839 781.312l-5.425-761.785z"/><path d="M452.316 10.421L1821.57-245.411l826.63 602.725-858.35 628.336L432.713 771.259l19.603-760.838z"/><path d="M452.466 1.464L1826.3-241.357l804.54 609.587-876.59 619.566L407.934 761.122 452.466 1.464z"/><path d="M452.859-7.344L1830.83-237.127l782.29 616.233-894.5 610.635L383.509 750.902l69.35-758.246z"/><path d="M453.491-16.003L1835.16-232.726l759.86 622.661-912.04 601.549L359.438 740.6l94.053-756.603z"/><path d="M454.356-24.51L1839.27-228.155l737.3 628.872-929.25 592.31L335.722 730.222 454.356-24.51z"/><path d="M455.445-32.859L1843.17-223.413l714.58 634.863-946.09 582.921L312.363 719.773 455.445-32.859z"/><path d="M456.756-41.052L1846.85-218.506l691.72 640.634L1576 995.515 289.363 709.255 456.756-41.052z"/><path d="M458.281-49.084L1850.29-213.433l668.75 646.183-978.7 563.711L266.721 698.672l191.56-747.756z"/><path d="M460.016-56.959L1853.51-208.201l645.65 651.509-994.46 553.897L244.443 688.023 460.016-56.959z"/><path d="M461.951-64.668l1394.539-138.14 622.44 656.613-1009.84 543.948L222.525 677.319 461.951-64.668z"/><path d="M464.086-72.216L1859.22-197.261l599.13 661.491L1433.5 998.099 200.972 666.556 464.086-72.216z"/><path d="M466.41-79.596l1395.3-111.96 575.72 666.145-1039.49 523.66L179.782 655.744 466.41-79.596z"/><path d="M468.919-86.81l1395.031-98.892 552.22 670.573-1053.74 513.33L158.957 644.882 468.919-86.81z"/><path d="M471.605-93.852l1394.335-85.844 528.64 674.776-1067.62 502.878-1188.463-363.98 333.108-727.83z"/><path d="M474.464-100.726l1393.196-72.82 504.99 678.752-1081.11 492.311L118.403 623.031l356.061-723.757z"/><path d="M477.489-107.426l1391.631-59.823 481.27 682.5-1094.2 481.632L98.675 612.047l378.814-719.473z"/><path d="M480.676-113.955l1389.644-46.859 457.49 686.022-1106.9 470.844L79.316 601.027l401.36-714.982z"/><path d="M484.014-120.308l1387.226-33.931 433.66 689.316-1119.21 459.952L60.321 589.978l423.693-710.286z"/><path d="M487.502-126.488L1871.89-147.53l409.79 692.382L1150.56 993.81 41.696 578.9l445.807-705.388z"/><path d="M491.127-132.487l1381.123-8.198 385.89 695.22-1142.63 437.869L23.433 567.8l467.694-700.287z"/><path d="M494.888-138.309l1377.452 4.598 361.96 697.832-1153.75 426.685L5.538 556.68l489.35-694.989z"/><path d="M498.779-143.953L1872.14-126.61l338.01 700.214L1045.7 989.017-11.989 545.543l510.768-689.496z"/><path d="M502.79-149.415l1368.85 30.031 314.06 702.369-1174.76 404.056L-29.153 534.393 502.79-149.415z"/><path d="M506.916-154.696l1363.934 42.661 290.1 704.296L976.296 984.88-45.952 523.235l552.868-677.931z"/><path d="M511.151-159.795l1358.619 55.227 266.14 705.996L941.768 982.531-62.385 512.069l573.536-671.864z"/><path d="M515.491-164.714L1868.39-96.988l242.19 707.47L907.363 979.996-78.454 500.899l593.946-665.613z"/><path d="M519.925-169.448L1866.7-89.294l218.26 708.716L873.085 977.279-94.162 489.731l614.087-659.179z"/><path d="M524.451-173.998L1864.71-81.491l194.36 709.737L838.942 974.38-109.507 478.565l633.958-652.563z"/><path d="M529.057-178.361L1862.4-73.579l170.51 710.532-1227.973 334.35-929.431-503.892 653.551-645.772z"/><path d="M533.74-182.541L1859.79-65.564l146.68 711.102L771.076 968.047-139.122 456.266 533.74-182.541z"/><path d="M538.495-186.535L1856.86-57.45l122.91 711.448L737.368 964.612-153.39 445.134l691.885-631.669z"/><path d="M543.313-190.341L1853.62-49.237l99.19 711.57L703.815 961.004-167.303 434.022l710.616-624.363z"/><path d="M548.189-193.962L1850.05-40.931l75.55 711.47L670.424 957.221-180.862 422.93l729.051-616.892z"/><path d="M553.116-197.397L1846.17-32.535l51.97 711.149L637.202 953.266-194.066 411.862l747.182-609.259z"/><path d="M558.087-200.643L1841.96-24.049l28.47 710.607L604.149 949.143l-811.071-548.32 765.009-601.466z"/><path d="M563.097-203.703L1837.43-15.48l5.05 709.844L571.277 944.849-219.426 389.813l782.523-593.516z"/><path d="M568.138-206.574L1832.56-6.828l-18.26 708.864L538.585 940.392-231.585 378.84l799.723-585.414z"/><path d="M573.204-209.259L1827.37 1.901l-41.48 707.666L506.082 935.769-243.399 367.903l816.603-577.162z"/><path d="M578.289-211.756L1821.85 10.706l-64.59 706.252L473.772 930.984-254.869 357.007l833.158-568.763z"/><path d="M583.388-214.066L1816 19.582l-87.6 704.623L441.661 926.038-265.998 346.155l849.386-560.221z"/><path d="M588.491-216.187L1809.81 28.528l-110.47 702.781L409.751 920.936-276.792 335.352l865.283-551.539z"/><path d="M593.593-218.121L1803.28 37.539l-133.21 700.727L378.047 915.678-287.251 324.599l880.844-542.72z"/><path d="M598.691-219.87L1796.42 46.611l-155.83 698.462L346.557 910.265-297.374 313.898 598.691-219.87z"/><path d="M603.775-221.431L1789.22 55.743l-178.3 695.989-1295.637 152.97-622.453-601.447 910.945-524.685z"/><path d="M608.842-222.809L1781.69 64.927l-200.62 693.307L284.233 898.986-316.636 292.668l925.478-515.477z"/><path d="M613.882-223.998L1773.81 74.166l-222.79 690.42L253.405 893.125-325.78 282.146l939.662-506.144z"/><path d="M618.891-225.004L1765.59 83.453l-244.79 687.33L222.808 887.12l-557.41-615.43 953.493-496.694z"/><path d="M623.864-225.825L1757.03 92.785 1490.4 776.822 192.446 880.971l-535.551-619.67 966.969-487.126z"/><path d="M628.789-226.459l1119.341 328.62-288.29 680.545-1297.521 91.979-513.616-623.698 980.086-477.446z"/><path d="M633.669-226.914L1738.89 111.573l-309.78 676.854-1296.672 79.832-491.612-627.516 992.843-467.657z"/><path d="M638.491-227.183L1729.31 121.024 1398.23 793.99 102.8 861.7-366.745 230.58 638.491-227.183z"/><path d="M643.252-227.272L1719.38 130.505 1367.2 799.39 73.415 855.007-374.01 220.495 643.252-227.272z"/><path d="M647.943-227.178L1709.11 140.017l-373.09 664.612L44.28 848.187-380.977 210.495l1028.92-437.673z"/><path d="M652.564-226.907L1698.5 149.552 1304.71 809.7 15.406 841.236-387.643 200.578 652.564-226.907z"/><path d="M657.104-226.455L1687.54 159.111l-414.27 655.497-1286.479 19.554-380.808-643.412L657.104-226.455z"/><path d="M661.557-225.823L1676.24 168.69l-434.55 650.661-1283.251 7.617-358.543-645.953L661.557-225.823z"/><path d="M665.919-225.014L1664.6 178.285 1210 823.926-69.645 819.655-405.904 171.374 665.919-225.014z"/><path d="M670.186-224.033L1652.62 187.89l-474.43 640.44-1275.645-16.108-313.965-650.397L670.186-224.033z"/><path d="M674.349-222.873l965.951 420.38-494.02 635.061-1271.274-27.89-291.667-652.299 1091.01-375.252z"/><path d="M678.406-221.543l949.234 428.67-513.38 629.507-1266.515-39.614-269.372-653.989L678.406-221.543z"/><path d="M682.349-220.039l932.281 436.791-532.48 623.778-1261.385-51.274-247.089-655.468L682.349-220.039z"/><path d="M686.173-218.365l915.117 444.74-551.35 617.879-1255.872-62.869-224.822-656.734L686.173-218.365z"/><path d="M689.871-216.519l897.749 452.515-569.97 611.812-1249.996-74.394-202.581-657.79L689.871-216.519z"/><path d="M693.441-214.507L1573.6 245.608 985.289 851.187-258.469 765.34-438.841 106.705 693.441-214.507z"/><path d="M696.875-212.328l862.375 467.539-606.399 599.184-1237.153-97.224-158.202-659.271L696.875-212.328z"/><path d="M700.168-209.982l844.402 474.784L920.347 857.43-309.843 748.91-445.921 89.213 700.168-209.982z"/><path d="M703.316-207.474l826.234 481.849L887.783 860.29-335.088 740.555-449.095 80.641 703.316-207.474z"/><path d="M706.313-204.804L1514.2 283.929 855.165 862.976-360.036 732.113-452.032 72.189 706.313-204.804z"/><path d="M709.153-201.971l789.377 495.434L822.499 865.49-384.685 723.589-454.736 63.862 709.153-201.971z"/><path d="M711.836-198.984l770.694 501.95-692.737 564.86-1198.821-152.848-48.181-659.324L711.836-198.984z"/><path d="M714.351-195.837l751.849 508.28-709.15 557.545L-433.072 706.29-459.461 47.573l1173.812-243.41z"/><path d="M716.695-192.536l732.845 514.424-725.264 550.089-1181.085-174.451-4.685-657.905L716.695-192.536z"/><path d="M718.863-189.079l713.697 520.38-741.082 542.491-1171.719-185.101 16.925-656.89 1182.179-220.88z"/><path d="M720.855-185.474l694.415 526.145-756.605 534.758-1162.026-195.646 38.436-655.675 1185.78-209.582z"/><path d="M722.659-181.718l675.001 531.721-771.823 526.891L-526.174 670.81l59.84-654.258 1188.993-198.27z"/><path d="M724.279-177.818l655.451 537.105L593.007 878.18-548.672 661.769-467.541 9.126l1191.82-186.944z"/><path d="M725.702-173.769l635.788 542.297-801.316 510.768L-570.86 652.671-468.559 1.841l1194.261-175.61z"/><path d="M726.928-169.577l616.012 547.296-815.591 502.518-1120.082-236.722L-469.387-5.306 726.928-169.577z"/></mask><g stroke-width=".392" class="B C"><path d="M521.231 240.192L1678.2 -286.667L2933.67 114.099L2552.62 888.646L1061.65 966.576L521.231 240.192Z" stroke="url(#C)"/><path d="M514.732 228.603L1685.87 -286.893L2924.77 125.001L2519.32 895.062L1029.83 959.092L514.732 228.603Z" stroke="url(#C)"/><path d="M508.583 217.101L1693.47 -286.913L2915.48 135.941L2485.84 901.294L998.3 951.454L508.583 217.101Z" stroke="url(#C)"/><path d="M502.779 205.693L1700.99 -286.725L2905.8 146.917L2452.2 907.341L967.051 943.667L502.779 205.693Z" stroke="url(#C)"/><path d="M497.316 194.382L1708.44 -286.33L2895.73 157.927L2418.39 913.204L936.091 935.734L497.316 194.382Z" stroke="url(#C)"/><path d="M492.19 183.169L1715.8 -285.729L2885.27 168.964L2384.43 918.878L905.426 927.658L492.19 183.169Z" stroke="url(#C)"/><path d="M487.4 172.056L1723.07 -284.927L2874.42 180.024L2350.32 924.362L875.062 919.437L487.4 172.056Z" stroke="url(#C)"/><path d="M482.939 161.047L1730.24 -283.921L2863.17 191.105L2316.07 929.655L845.001 911.079L482.939 161.047Z" stroke="url(#C)"/><path d="M478.8 150.149L1737.3 -282.712L2851.54 202.205L2281.68 934.76L815.243 902.587L478.8 150.149Z" stroke="url(#C)"/><path d="M474.983 139.359L1744.25 -281.303L2839.52 213.317L2247.16 939.671L785.797 893.962L474.983 139.359Z" stroke="url(#C)"/><path d="M471.483 128.682L1751.09 -279.696L2827.11 224.437L2212.52 944.387L756.666 885.207L471.483 128.682Z" stroke="url(#C)"/><path d="M468.292 118.125L1757.79 -277.889L2814.31 235.566L2177.77 948.912L727.85 876.329L468.292 118.125Z" stroke="url(#C)"/><path d="M465.409 107.683L1764.37 -275.888L2801.12 246.694L2142.91 953.238L699.358 867.325L465.409 107.683Z" stroke="url(#C)"/><path d="M462.826 97.3661L1770.81 -273.69L2787.54 257.823L2107.94 957.372L671.187 858.204L462.826 97.3661Z" stroke="url(#C)"/><path d="M460.539 87.173L1777.1 -271.298L2773.58 268.947L2072.88 961.308L643.343 848.966L460.539 87.173Z" stroke="url(#C)"/><path d="M458.546 77.106L1783.25 -268.716L2759.24 280.06L2037.74 965.046L615.831 839.613L458.546 77.106Z" stroke="url(#C)"/><path d="M456.838 67.1701L1789.24 -265.943L2744.51 291.162L2002.51 968.586L588.651 830.152L456.838 67.1701Z" stroke="url(#C)"/><path d="M455.41 57.3676L1795.06 -262.981L2729.41 302.25L1967.21 971.93L561.805 820.584L455.41 57.3676Z" stroke="url(#C)"/><path d="M454.261 47.6989L1800.72 -259.833L2713.92 313.316L1931.85 975.073L535.3 810.913L454.261 47.6989Z" stroke="url(#C)"/><path d="M453.38 38.1685L1806.2 -256.499L2698.05 324.36L1896.42 978.018L509.135 801.142L453.38 38.1685Z" stroke="url(#C)"/><path d="M452.769 28.7742L1811.51 -252.986L2681.81 335.374L1860.94 980.76L483.316 791.271L452.769 28.7742Z" stroke="url(#C)"/><path d="M452.414 19.5273L1816.63 -249.286L2665.19 346.363L1825.41 983.307L457.839 781.312L452.414 19.5273Z" stroke="url(#C)"/><path d="M452.316 10.421L1821.57 -245.411L2648.2 357.314L1789.85 985.65L432.713 771.259L452.316 10.421Z" stroke="url(#C)"/><path d="M452.466 1.46375L1826.3 -241.357L2630.84 368.23L1754.25 987.796L407.934 761.122L452.466 1.46375Z" stroke="url(#C)"/><path d="M452.859 -7.34424L1830.83 -237.127L2613.12 379.106L1718.62 989.741L383.509 750.902L452.859 -7.34424Z" stroke="url(#C)"/><path d="M453.491 -16.0035L1835.16 -232.726L2595.02 389.935L1682.98 991.484L359.438 740.6L453.491 -16.0035Z" stroke="url(#C)"/><path d="M454.356 -24.5098L1839.27 -228.155L2576.57 400.717L1647.32 993.027L335.722 730.222L454.356 -24.5098Z" stroke="url(#C)"/><path d="M455.445 -32.8591L1843.17 -223.413L2557.75 411.45L1611.66 994.371L312.363 719.773L455.445 -32.8591Z" stroke="url(#C)"/><path d="M456.756 -41.0517L1846.85 -218.506L2538.57 422.128L1576 995.515L289.363 709.255L456.756 -41.0517Z" stroke="url(#C)"/><path d="M458.281 -49.0842L1850.29 -213.433L2519.04 432.75L1540.34 996.461L266.721 698.672L458.281 -49.0842Z" stroke="url(#C)"/><path d="M460.016 -56.9591L1853.51 -208.201L2499.16 443.308L1504.7 997.205L244.443 688.023L460.016 -56.9591Z" stroke="url(#C)"/><path d="M461.951 -64.6681L1856.49 -202.808L2478.93 453.805L1469.09 997.753L222.525 677.319L461.951 -64.6681Z" stroke="url(#C)"/><path d="M464.086 -72.2165L1859.22 -197.261L2458.35 464.23L1433.5 998.099L200.972 666.556L464.086 -72.2165Z" stroke="url(#C)"/><path d="M466.41 -79.596L1861.71 -191.556L2437.43 474.589L1397.94 998.249L179.782 655.744L466.41 -79.596Z" stroke="url(#C)"/><path d="M468.919 -86.8099L1863.95 -185.702L2416.17 484.871L1362.43 998.201L158.957 644.882L468.919 -86.8099Z" stroke="url(#C)"/><path d="M471.605 -93.8522L1865.94 -179.696L2394.58 495.08L1326.96 997.958L138.497 633.978L471.605 -93.8522Z" stroke="url(#C)"/><path d="M474.464 -100.726L1867.66 -173.546L2372.65 505.206L1291.54 997.517L118.403 623.031L474.464 -100.726Z" stroke="url(#C)"/><path d="M477.489 -107.426L1869.12 -167.249L2350.39 515.251L1256.19 996.883L98.6752 612.047L477.489 -107.426Z" stroke="url(#C)"/><path d="M480.676 -113.955L1870.32 -160.814L2327.81 525.208L1220.91 996.052L79.316 601.027L480.676 -113.955Z" stroke="url(#C)"/><path d="M484.014 -120.308L1871.24 -154.239L2304.9 535.077L1185.69 995.029L60.3208 589.978L484.014 -120.308Z" stroke="url(#C)"/><path d="M487.502 -126.488L1871.89 -147.53L2281.68 544.852L1150.56 993.81L41.6955 578.9L487.502 -126.488Z" stroke="url(#C)"/><path d="M491.127 -132.487L1872.25 -140.685L2258.14 554.535L1115.51 992.404L23.4329 567.8L491.127 -132.487Z" stroke="url(#C)"/><path d="M494.888 -138.309L1872.34 -133.711L2234.3 564.121L1080.55 990.806L5.53799 556.68L494.888 -138.309Z" stroke="url(#C)"/><path d="M498.779 -143.953L1872.14 -126.61L2210.15 573.604L1045.7 989.017L-11.9891 545.543L498.779 -143.953Z" stroke="url(#C)"/><path d="M502.79 -149.415L1871.64 -119.384L2185.7 582.985L1010.94 987.041L-29.1528 534.393L502.79 -149.415Z" stroke="url(#C)"/><path d="M506.916 -154.696L1870.85 -112.035L2160.95 592.261L976.296 984.88L-45.9516 523.235L506.916 -154.696Z" stroke="url(#C)"/><path d="M511.151 -159.795L1869.77 -104.568L2135.91 601.428L941.768 982.531L-62.3853 512.069L511.151 -159.795Z" stroke="url(#C)"/><path d="M515.491 -164.714L1868.39 -96.9877L2110.58 610.482L907.363 979.996L-78.4545 500.899L515.491 -164.714Z" stroke="url(#C)"/><path d="M519.925 -169.448L1866.7 -89.2936L2084.96 619.422L873.085 977.279L-94.1618 489.731L519.925 -169.448Z" stroke="url(#C)"/><path d="M524.451 -173.998L1864.71 -81.491L2059.07 628.246L838.942 974.38L-109.507 478.565L524.451 -173.998Z" stroke="url(#C)"/><path d="M529.057 -178.361L1862.4 -73.5786L2032.91 636.953L804.937 971.303L-124.494 467.411L529.057 -178.361Z" stroke="url(#C)"/><path d="M533.74 -182.541L1859.79 -65.564L2006.47 645.538L771.076 968.047L-139.122 456.266L533.74 -182.541Z" stroke="url(#C)"/><path d="M538.495 -186.535L1856.86 -57.45L1979.77 653.998L737.368 964.612L-153.39 445.134L538.495 -186.535Z" stroke="url(#C)"/><path d="M543.313 -190.341L1853.62 -49.2373L1952.81 662.333L703.815 961.004L-167.303 434.022L543.313 -190.341Z" stroke="url(#C)"/><path d="M548.189 -193.962L1850.05 -40.9314L1925.6 670.539L670.424 957.221L-180.862 422.93L548.189 -193.962Z" stroke="url(#C)"/><path d="M553.116 -197.397L1846.17 -32.5349L1898.14 678.614L637.202 953.266L-194.066 411.862L553.116 -197.397Z" stroke="url(#C)"/><path d="M558.087 -200.643L1841.96 -24.0488L1870.43 686.558L604.149 949.143L-206.922 400.823L558.087 -200.643Z" stroke="url(#C)"/><path d="M563.097 -203.703L1837.43 -15.4803L1842.48 694.364L571.277 944.849L-219.426 389.813L563.097 -203.703Z" stroke="url(#C)"/><path d="M568.138 -206.574L1832.56 -6.82774L1814.3 702.036L538.585 940.392L-231.585 378.84L568.138 -206.574Z" stroke="url(#C)"/><path d="M573.204 -209.259L1827.37 1.90109L1785.89 709.567L506.082 935.769L-243.399 367.903L573.204 -209.259Z" stroke="url(#C)"/><path d="M578.289 -211.756L1821.85 10.7061L1757.26 716.958L473.772 930.984L-254.869 357.007L578.289 -211.756Z" stroke="url(#C)"/><path d="M583.388 -214.066L1816 19.5818L1728.4 724.205L441.661 926.038L-265.998 346.155L583.388 -214.066Z" stroke="url(#C)"/><path d="M588.491 -216.187L1809.81 28.5278L1699.34 731.309L409.751 920.936L-276.792 335.352L588.491 -216.187Z" stroke="url(#C)"/><path d="M593.593 -218.121L1803.28 37.5392L1670.07 738.266L378.047 915.678L-287.251 324.599L593.593 -218.121Z" stroke="url(#C)"/><path d="M598.691 -219.87L1796.42 46.6109L1640.59 745.073L346.557 910.265L-297.374 313.898L598.691 -219.87Z" stroke="url(#C)"/><path d="M603.775 -221.431L1789.22 55.7425L1610.92 751.731L315.283 904.701L-307.17 303.254L603.775 -221.431Z" stroke="url(#C)"/><path d="M608.842 -222.809L1781.69 64.9271L1581.07 758.234L284.233 898.986L-316.636 292.668L608.842 -222.809Z" stroke="url(#C)"/><path d="M613.882 -223.998L1773.81 74.1658L1551.02 764.586L253.405 893.125L-325.78 282.146L613.882 -223.998Z" stroke="url(#C)"/><path d="M618.891 -225.004L1765.59 83.4527L1520.8 770.783L222.808 887.12L-334.602 271.69L618.891 -225.004Z" stroke="url(#C)"/><path d="M623.864 -225.825L1757.03 92.7845L1490.4 776.822L192.446 880.971L-343.105 261.301L623.864 -225.825Z" stroke="url(#C)"/><path d="M628.789 -226.459L1748.13 102.161L1459.84 782.706L162.319 874.685L-351.297 250.987L628.789 -226.459Z" stroke="url(#C)"/><path d="M633.669 -226.914L1738.89 111.573L1429.11 788.427L132.438 868.259L-359.174 240.743L633.669 -226.914Z" stroke="url(#C)"/><path d="M638.491 -227.183L1729.31 121.024L1398.23 793.99L102.8 861.7L-366.745 230.58L638.491 -227.183Z" stroke="url(#C)"/><path d="M643.252 -227.272L1719.38 130.505L1367.2 799.39L73.4149 855.007L-374.01 220.495L643.252 -227.272Z" stroke="url(#C)"/><path d="M647.943 -227.178L1709.11 140.017L1336.02 804.629L44.2798 848.187L-380.977 210.495L647.943 -227.178Z" stroke="url(#C)"/><path d="M652.564 -226.907L1698.5 149.552L1304.71 809.7L15.4061 841.236L-387.643 200.578L652.564 -226.907Z" stroke="url(#C)"/><path d="M657.104 -226.455L1687.54 159.111L1273.27 814.608L-13.2088 834.162L-394.017 190.75L657.104 -226.455Z" stroke="url(#C)"/><path d="M661.557 -225.823L1676.24 168.69L1241.69 819.351L-41.5607 826.968L-400.104 181.015L661.557 -225.823Z" stroke="url(#C)"/><path d="M665.919 -225.014L1664.6 178.285L1210 823.926L-69.6446 819.655L-405.904 171.374L665.919 -225.014Z" stroke="url(#C)"/><path d="M670.186 -224.033L1652.62 187.89L1178.19 828.33L-97.4554 812.222L-411.42 161.825L670.186 -224.033Z" stroke="url(#C)"/><path d="M674.349 -222.873L1640.3 197.507L1146.28 832.568L-124.994 804.678L-416.661 152.379L674.349 -222.873Z" stroke="url(#C)"/><path d="M678.406 -221.543L1627.64 207.127L1114.26 836.634L-152.255 797.02L-421.627 143.031L678.406 -221.543Z" stroke="url(#C)"/><path d="M682.349 -220.039L1614.63 216.752L1082.15 840.53L-179.235 789.256L-426.324 133.788L682.349 -220.039Z" stroke="url(#C)"/><path d="M686.173 -218.365L1601.29 226.375L1049.94 844.254L-205.932 781.385L-430.754 124.651L686.173 -218.365Z" stroke="url(#C)"/><path d="M689.871 -216.519L1587.62 235.996L1017.65 847.808L-232.346 773.414L-434.927 115.624L689.871 -216.519Z" stroke="url(#C)"/><path d="M693.441 -214.507L1573.6 245.608L985.289 851.187L-258.469 765.34L-438.841 106.705L693.441 -214.507Z" stroke="url(#C)"/><path d="M696.875 -212.328L1559.25 255.211L952.851 854.395L-284.302 757.171L-442.504 97.9005L696.875 -212.328Z" stroke="url(#C)"/><path d="M700.168 -209.982L1544.57 264.802L920.347 857.43L-309.843 748.91L-445.921 89.2127L700.168 -209.982Z" stroke="url(#C)"/><path d="M703.316 -207.474L1529.55 274.375L887.783 860.29L-335.088 740.555L-449.095 80.6407L703.316 -207.474Z" stroke="url(#C)"/><path d="M706.313 -204.804L1514.2 283.929L855.165 862.976L-360.036 732.113L-452.032 72.1888L706.313 -204.804Z" stroke="url(#C)"/><path d="M709.153 -201.971L1498.53 293.463L822.499 865.49L-384.685 723.589L-454.736 63.8615L709.153 -201.971Z" stroke="url(#C)"/><path d="M711.836 -198.984L1482.53 302.966L789.793 867.826L-409.028 714.978L-457.209 55.6535L711.836 -198.984Z" stroke="url(#C)"/><path d="M714.351 -195.837L1466.2 312.443L757.05 869.988L-433.072 706.29L-459.461 47.5734L714.351 -195.837Z" stroke="url(#C)"/><path d="M716.695 -192.536L1449.54 321.888L724.276 871.977L-456.809 697.526L-461.494 39.6213L716.695 -192.536Z" stroke="url(#C)"/><path d="M718.863 -189.079L1432.56 331.301L691.478 873.792L-480.241 688.691L-463.316 31.8012L718.863 -189.079Z" stroke="url(#C)"/><path d="M720.855 -185.474L1415.27 340.671L658.665 875.429L-503.361 679.783L-464.925 24.1084L720.855 -185.474Z" stroke="url(#C)"/><path d="M722.659 -181.718L1397.66 350.003L625.837 876.894L-526.174 670.81L-466.334 16.5516L722.659 -181.718Z" stroke="url(#C)"/><path d="M724.279 -177.818L1379.73 359.287L593.007 878.18L-548.672 661.769L-467.541 9.12627L724.279 -177.818Z" stroke="url(#C)"/><path d="M725.702 -173.769L1361.49 368.528L560.174 879.296L-570.86 652.671L-468.559 1.84111L725.702 -173.769Z" stroke="url(#C)"/><path d="M726.928 -169.577L1342.94 377.719L527.349 880.237L-592.733 643.515L-469.387 -5.30632L726.928 -169.577Z" stroke="url(#C)"/></g></g><defs><radialGradient id="B" cx="0" cy="0" r="1" gradientUnits="userSpaceOnUse" gradientTransform="translate(719 527) rotate(90) scale(56.276 646.934)"><stop stop-color="#67dfe3"/><stop offset="1" stop-opacity="0"/></radialGradient><linearGradient id="C" x1="-249.798" y1="228.887" x2="548.175" y2="879.652" gradientUnits="userSpaceOnUse"><stop stop-color="#161616"/><stop offset="1" stop-color="#00b2ff"/></linearGradient><clipPath id="D"><path fill="#fff" d="M0 0h1440v961H0z"/></clipPath></defs></svg>