<svg width="32" height="32" viewBox="0 0 32 32" fill="none" xmlns="http://www.w3.org/2000/svg">
<path d="M21 11C22.1046 11 23 10.1046 23 9C23 7.89543 22.1046 7 21 7C19.8954 7 19 7.89543 19 9C19 10.1046 19.8954 11 21 11Z" stroke="white" stroke-width="1.5" stroke-linecap="round" stroke-linejoin="round"/>
<path d="M11 11C12.1046 11 13 10.1046 13 9C13 7.89543 12.1046 7 11 7C9.89543 7 9 7.89543 9 9C9 10.1046 9.89543 11 11 11Z" stroke="white" stroke-width="1.5" stroke-linecap="round" stroke-linejoin="round"/>
<path d="M11 25C12.1046 25 13 24.1046 13 23C13 21.8954 12.1046 21 11 21C9.89543 21 9 21.8954 9 23C9 24.1046 9.89543 25 11 25Z" stroke="white" stroke-width="1.5" stroke-linecap="round" stroke-linejoin="round"/>
<path d="M11 11V21" stroke="white" stroke-width="1.5" stroke-linecap="round" stroke-linejoin="round"/>
<path d="M21 11V12C21 14.5 19 15 19 15L13 17C13 17 11 17.5 11 20V21" stroke="white" stroke-width="1.5" stroke-linecap="round" stroke-linejoin="round"/>
</svg>
