<svg width="15" height="11" viewBox="0 0 15 11" fill="none" xmlns="http://www.w3.org/2000/svg">
<path d="M6.87305 8.75094C7.1002 8.75094 7.30464 8.93266 7.30464 9.18253C7.30464 9.40968 7.12292 9.61411 6.87305 9.61411C6.6459 9.61411 6.44146 9.43239 6.44146 9.18253C6.44146 8.93266 6.6459 8.75094 6.87305 8.75094ZM13.5513 6.11599C13.3241 6.11599 13.1197 5.93427 13.1197 5.68441C13.1197 5.45726 13.3014 5.25282 13.5513 5.25282C13.7784 5.25282 13.9829 5.43454 13.9829 5.68441C13.9829 5.91156 13.7784 6.11599 13.5513 6.11599ZM13.5513 4.36694C12.8244 4.36694 12.2338 4.95753 12.2338 5.68441C12.2338 5.8207 12.2565 5.95699 12.3019 6.09328L7.96337 8.41022C7.71351 8.04677 7.30464 7.84234 6.87305 7.84234C6.37332 7.84234 5.91902 8.13763 5.69187 8.56922L1.78488 6.52487C1.37601 6.29771 1.058 5.63898 1.10343 5.00296C1.12614 4.68495 1.23972 4.43508 1.39872 4.34422C1.5123 4.27607 1.62587 4.29879 1.78488 4.36694L1.80759 4.38965C2.85249 4.93481 6.23703 6.70659 6.37332 6.77473C6.60047 6.86559 6.71405 6.91102 7.1002 6.7293L14.0964 3.09489C14.21 3.04946 14.3236 2.9586 14.3236 2.7996C14.3236 2.59516 14.1192 2.5043 14.1192 2.5043C13.7103 2.32258 13.097 2.02728 12.5064 1.7547C11.2343 1.16411 9.78058 0.48266 9.14456 0.141934C8.59939 -0.153362 8.14509 0.0965038 8.07695 0.141934L7.91794 0.210079C5.03313 1.66384 1.217 3.54919 0.989851 3.68548C0.603695 3.91263 0.35383 4.38965 0.331115 4.98024C0.285684 5.91156 0.762701 6.88831 1.44415 7.22903L5.57829 9.36425C5.66915 10.0003 6.23703 10.5 6.87305 10.5C7.59993 10.5 8.16781 9.93212 8.19052 9.20524L12.7335 6.75202C12.9607 6.93374 13.256 7.0246 13.5513 7.0246C14.2782 7.0246 14.8688 6.43401 14.8688 5.70712C14.8688 4.95753 14.2782 4.36694 13.5513 4.36694Z" fill="white"/>
</svg>
