<svg width="105" height="26" viewBox="0 0 105 26" fill="none" xmlns="http://www.w3.org/2000/svg">
<g opacity="0.25">
<path d="M33.8319 20.1405V9.24333H30.1875V6.85565H40.1511V9.24333H36.4888V20.1405H33.8319Z" fill="black"/>
<path d="M44.4624 20.2303C44.1752 20.2303 43.846 20.2003 43.475 20.1405C43.104 20.0926 42.7449 19.9729 42.3979 19.7814C42.0627 19.59 41.7815 19.3027 41.5541 18.9197C41.3387 18.5248 41.231 17.9862 41.231 17.304V9.88962C41.231 9.30317 41.3207 8.81247 41.5002 8.41751C41.6798 8.02256 41.9191 7.71138 42.2183 7.48399C42.5175 7.25659 42.8467 7.09501 43.2057 6.99927C43.5648 6.90352 43.9178 6.85565 44.2649 6.85565C45.1625 6.85565 45.9525 6.86762 46.6347 6.89155C47.3288 6.91549 47.9512 6.94541 48.5017 6.98132C49.0523 7.00525 49.5549 7.04116 50.0097 7.08903V9.31514H45.0548C44.6838 9.31514 44.3966 9.4049 44.1931 9.58443C43.9897 9.76395 43.8879 10.0392 43.8879 10.4102V12.3312L49.148 12.4748V14.5752L43.8879 14.7188V16.55C43.8879 16.8612 43.9358 17.1065 44.0315 17.286C44.1393 17.4536 44.2769 17.5733 44.4444 17.6451C44.624 17.7049 44.8095 17.7349 45.001 17.7349H50.0097V19.961C49.4831 20.0208 48.8967 20.0687 48.2504 20.1046C47.6161 20.1405 46.9698 20.1704 46.3115 20.1944C45.6652 20.2183 45.0488 20.2303 44.4624 20.2303Z" fill="black"/>
<path d="M51.7633 20.1405V6.85565H57.2568C57.7834 6.85565 58.2741 6.92147 58.7289 7.05313C59.1837 7.17281 59.5846 7.38824 59.9317 7.69942C60.2788 8.01059 60.5481 8.44145 60.7396 8.99199C60.943 9.54254 61.0448 10.2487 61.0448 11.1104C61.0448 11.7208 60.9849 12.2414 60.8652 12.6723C60.7455 13.1031 60.584 13.4562 60.3805 13.7315C60.189 14.0067 59.9676 14.2281 59.7163 14.3957C59.4649 14.5633 59.2076 14.7009 58.9443 14.8086L61.4218 20.1405H58.7109L56.5746 15.2215C56.431 15.2215 56.2634 15.2215 56.0719 15.2215C55.8924 15.2095 55.7069 15.2036 55.5154 15.2036C55.3239 15.2036 55.1324 15.2036 54.9409 15.2036C54.7494 15.2036 54.5759 15.1976 54.4203 15.1856V20.1405H51.7633ZM54.4203 13.0852H56.79C57.0294 13.0852 57.2448 13.0552 57.4363 12.9954C57.6278 12.9356 57.7954 12.8338 57.939 12.6902C58.0826 12.5346 58.1903 12.3312 58.2621 12.0798C58.3459 11.8285 58.3878 11.5053 58.3878 11.1104C58.3878 10.7394 58.3459 10.4342 58.2621 10.1948C58.1903 9.94348 58.0826 9.75198 57.939 9.62033C57.7954 9.47671 57.6278 9.38097 57.4363 9.33309C57.2448 9.27325 57.0294 9.24333 56.79 9.24333H54.4203V13.0852Z" fill="black"/>
<path d="M62.8392 20.1405V6.85565H65.4961V20.1405H62.8392Z" fill="black"/>
<path d="M70.4038 20.1405V9.24333H66.7594V6.85565H76.723V9.24333H73.0607V20.1405H70.4038Z" fill="black"/>
<path d="M83.0249 20.2482C82.1153 20.2482 81.3194 20.1644 80.6372 19.9969C79.955 19.8174 79.3806 19.4942 78.9138 19.0274C78.459 18.5487 78.1179 17.8665 77.8905 16.9809C77.6631 16.0952 77.5494 14.9403 77.5494 13.516C77.5494 12.0918 77.6631 10.9368 77.8905 10.0512C78.1299 9.15357 78.477 8.46539 78.9318 7.98666C79.3866 7.50792 79.955 7.17879 80.6372 6.99927C81.3194 6.81974 82.1153 6.72998 83.0249 6.72998C83.9345 6.72998 84.7304 6.81974 85.4126 6.99927C86.0948 7.17879 86.6633 7.50792 87.1181 7.98666C87.5729 8.46539 87.914 9.15357 88.1414 10.0512C88.3688 10.9368 88.4825 12.0918 88.4825 13.516C88.4825 14.9403 88.3688 16.0952 88.1414 16.9809C87.914 17.8665 87.5729 18.5487 87.1181 19.0274C86.6633 19.4942 86.0948 19.8174 85.4126 19.9969C84.7304 20.1644 83.9345 20.2482 83.0249 20.2482ZM83.0249 17.8605C83.5635 17.8605 84.0123 17.8007 84.3714 17.681C84.7304 17.5613 85.0117 17.3519 85.2151 17.0527C85.4306 16.7415 85.5861 16.3046 85.6819 15.7421C85.7776 15.1677 85.8255 14.4256 85.8255 13.516C85.8255 12.5586 85.7776 11.7926 85.6819 11.2181C85.5861 10.6436 85.4306 10.2068 85.2151 9.90757C85.0117 9.5964 84.7304 9.38695 84.3714 9.27924C84.0123 9.17152 83.5635 9.11766 83.0249 9.11766C82.5103 9.11766 82.0734 9.17152 81.7144 9.27924C81.3553 9.38695 81.0621 9.5964 80.8347 9.90757C80.6193 10.2068 80.4577 10.6436 80.35 11.2181C80.2543 11.7926 80.2064 12.5586 80.2064 13.516C80.2064 14.4256 80.2483 15.1677 80.3321 15.7421C80.4278 16.3046 80.5834 16.7415 80.7988 17.0527C81.0142 17.3519 81.3015 17.5613 81.6605 17.681C82.0316 17.8007 82.4864 17.8605 83.0249 17.8605Z" fill="black"/>
<path d="M90.2637 20.1405V6.85565H95.7572C96.2838 6.85565 96.7745 6.92147 97.2293 7.05313C97.6841 7.17281 98.085 7.38824 98.4321 7.69942C98.7792 8.01059 99.0485 8.44145 99.24 8.99199C99.4434 9.54254 99.5452 10.2487 99.5452 11.1104C99.5452 11.7208 99.4853 12.2414 99.3656 12.6723C99.2459 13.1031 99.0844 13.4562 98.8809 13.7315C98.6894 14.0067 98.468 14.2281 98.2167 14.3957C97.9653 14.5633 97.708 14.7009 97.4447 14.8086L99.9221 20.1405H97.2113L95.075 15.2215C94.9314 15.2215 94.7638 15.2215 94.5723 15.2215C94.3928 15.2095 94.2073 15.2036 94.0158 15.2036C93.8243 15.2036 93.6328 15.2036 93.4413 15.2036C93.2498 15.2036 93.0763 15.1976 92.9207 15.1856V20.1405H90.2637ZM92.9207 13.0852H95.2904C95.5298 13.0852 95.7452 13.0552 95.9367 12.9954C96.1282 12.9356 96.2957 12.8338 96.4394 12.6902C96.583 12.5346 96.6907 12.3312 96.7625 12.0798C96.8463 11.8285 96.8882 11.5053 96.8882 11.1104C96.8882 10.7394 96.8463 10.4342 96.7625 10.1948C96.6907 9.94348 96.583 9.75198 96.4394 9.62033C96.2957 9.47671 96.1282 9.38097 95.9367 9.33309C95.7452 9.27325 95.5298 9.24333 95.2904 9.24333H92.9207V13.0852Z" fill="black"/>
<path d="M101.34 20.1405V6.85565H103.997V20.1405H101.34Z" fill="black"/>
</g>
<g opacity="0.25">
<path d="M8.16021 23.7982C8.04614 23.6975 7.97472 23.5571 7.96048 23.4056L6.82662 11.3429H10.8619V24.8569C10.8619 25.3723 10.2538 25.6466 9.8674 25.3055L8.16021 23.7982Z" fill="black"/>
<path d="M10.8619 11.1035V9.41964L6.61132 9.05239L6.80412 11.1035H10.8619Z" fill="black"/>
<path d="M10.8619 9.17938L6.58855 8.81017L5.92063 1.70447C5.88763 1.3534 6.16381 1.05005 6.51642 1.05005H10.2635C10.594 1.05005 10.8619 1.31797 10.8619 1.64847V9.17938Z" fill="black"/>
<path d="M18.7489 11.1035H21.8249C21.9901 11.1035 22.1241 10.9695 22.1241 10.8043V9.03968C22.1241 8.86294 21.9717 8.72471 21.7958 8.74189L18.9394 9.02081L18.7489 11.1035Z" fill="black"/>
<path d="M18.6969 9.04449L14.4404 9.46012V11.1035H18.5085L18.6969 9.04449Z" fill="black"/>
<path d="M14.2011 9.4835V11.1035H2.86706C2.70181 11.1035 2.56785 10.9695 2.56785 10.8043V9.03572C2.56785 8.86042 2.71789 8.72266 2.89256 8.7376L12.9656 9.59914C12.9837 9.60069 13.002 9.60058 13.0202 9.59881L14.2011 9.4835Z" fill="black"/>
<path d="M15.4649 25.2648C15.0891 25.6458 14.4404 25.3797 14.4404 24.8446V6.2803H18.9555L17.3848 23.126C17.372 23.2635 17.312 23.3923 17.215 23.4907L15.4649 25.2648Z" fill="black"/>
<path d="M18.9779 6.04093H14.4404V3.46085L19.2464 3.16105L18.9779 6.04093Z" fill="black"/>
<path d="M14.4404 1.64855V3.22102L19.2689 2.91981L19.3822 1.70411C19.4149 1.35319 19.1388 1.05014 18.7864 1.05014H15.0389C14.7084 1.05014 14.4404 1.31806 14.4404 1.64855Z" fill="black"/>
<path d="M10.8619 6.04094V3.46837L6.06191 3.23215L6.32453 6.04094H10.8619Z" fill="black"/>
<path d="M11.1013 6.04094H23.2013C23.3335 6.04094 23.4406 5.93377 23.4406 5.80157V3.14234C23.4406 3.00417 23.324 2.89469 23.1861 2.90345L12.7948 3.56349L11.1013 3.48015V6.04094Z" fill="black"/>
<path d="M5.80067 3.21929L6.08738 6.04094H1.23937C1.10717 6.04094 1 5.93377 1 5.80157V3.23447C1 3.09765 1.11448 2.98866 1.25113 2.99539L5.80067 3.21929Z" fill="black"/>
</g>
<path d="M8.16021 23.7482C8.04614 23.6475 7.97472 23.5071 7.96048 23.3556L6.82662 11.2929H10.8619V24.8069C10.8619 25.3223 10.2538 25.5966 9.8674 25.2555L8.16021 23.7482Z" fill="url(#paint0_linear_7198_113194)"/>
<path d="M10.8619 11.0535V9.36959L6.61132 9.00234L6.80412 11.0535H10.8619Z" fill="url(#paint1_linear_7198_113194)"/>
<path d="M10.8619 9.12933L6.58855 8.76012L5.92063 1.65442C5.88763 1.30335 6.16381 1 6.51642 1H10.2635C10.594 1 10.8619 1.26792 10.8619 1.59842V9.12933Z" fill="url(#paint2_linear_7198_113194)"/>
<path d="M18.7489 11.0534H21.8249C21.9901 11.0534 22.1241 10.9195 22.1241 10.7542V8.98963C22.1241 8.81289 21.9717 8.67466 21.7958 8.69184L18.9394 8.97076L18.7489 11.0534Z" fill="url(#paint3_linear_7198_113194)"/>
<path d="M18.6969 8.99444L14.4404 9.41007V11.0534H18.5085L18.6969 8.99444Z" fill="url(#paint4_linear_7198_113194)"/>
<path d="M14.2011 9.43345V11.0534H2.86706C2.70181 11.0534 2.56785 10.9195 2.56785 10.7542V8.98567C2.56785 8.81037 2.71789 8.67262 2.89256 8.68755L12.9656 9.54909C12.9837 9.55064 13.002 9.55053 13.0202 9.54876L14.2011 9.43345Z" fill="url(#paint5_linear_7198_113194)"/>
<path d="M15.4649 25.2148C15.0891 25.5957 14.4404 25.3296 14.4404 24.7945V6.23025H18.9555L17.3848 23.0759C17.372 23.2134 17.312 23.3423 17.215 23.4406L15.4649 25.2148Z" fill="url(#paint6_linear_7198_113194)"/>
<path d="M18.9779 5.99088H14.4404V3.4108L19.2464 3.111L18.9779 5.99088Z" fill="url(#paint7_linear_7198_113194)"/>
<path d="M14.4404 1.5985V3.17097L19.2689 2.86976L19.3822 1.65406C19.4149 1.30314 19.1388 1.00009 18.7864 1.00009H15.0389C14.7084 1.00009 14.4404 1.26801 14.4404 1.5985Z" fill="url(#paint8_linear_7198_113194)"/>
<path d="M10.8619 5.99089V3.41832L6.06191 3.1821L6.32453 5.99089H10.8619Z" fill="url(#paint9_linear_7198_113194)"/>
<path d="M11.1013 5.99089H23.2013C23.3335 5.99089 23.4406 5.88372 23.4406 5.75152V3.09229C23.4406 2.95412 23.324 2.84464 23.1861 2.8534L12.7948 3.51345L11.1013 3.4301V5.99089Z" fill="url(#paint10_linear_7198_113194)"/>
<path d="M5.80067 3.16924L6.08738 5.99089H1.23937C1.10717 5.99089 1 5.88372 1 5.75152V3.18442C1 3.0476 1.11448 2.93862 1.25113 2.94534L5.80067 3.16924Z" fill="url(#paint11_linear_7198_113194)"/>
<path d="M6.81691 8.77985L6.58855 8.76012L6.32825 5.99089H6.32453L6.06191 3.1821L6.06424 3.18221L5.92063 1.65442C5.88763 1.30335 6.16381 1 6.51642 1H10.2635C10.4931 1 10.6925 1.12931 10.7928 1.31907C10.7094 1.27497 10.6144 1.25 10.5135 1.25H6.76642C6.41381 1.25 6.13763 1.55335 6.17063 1.90442L6.31424 3.43221L6.31191 3.4321L6.57453 6.24089H6.57825L6.81691 8.77985Z" fill="white"/>
<path d="M11.1119 5.99087L11.3513 5.99089V3.6801L13.0448 3.76345L23.4361 3.1034L23.4406 3.10316V3.09229C23.4406 2.95412 23.324 2.84464 23.1861 2.8534L19.522 3.08614H19.5189L14.6904 3.39304L12.7948 3.51345L11.1119 3.43062V5.99087Z" fill="white"/>
<path d="M19.3157 1.31905C19.2326 1.2751 19.1376 1.25009 19.0364 1.25009H15.2889C14.9584 1.25009 14.6904 1.51801 14.6904 1.8485V3.15538L14.4404 3.17097V1.5985C14.4404 1.26801 14.7084 1.00009 15.0389 1.00009H18.7864C19.0175 1.00009 19.2158 1.13039 19.3157 1.31905Z" fill="white"/>
<path d="M14.4404 6.24089H18.9545L18.9322 6.48025H14.6904V25.0445C14.6904 25.1481 14.7148 25.2417 14.7567 25.3224C14.5748 25.2259 14.4404 25.0381 14.4404 24.7945V11.3034H14.4511V9.68345L14.4404 9.68449V6.24089Z" fill="white"/>
<path d="M14.2011 9.70786V9.43345L13.0202 9.54876C13.002 9.55053 12.9837 9.55064 12.9656 9.54909L6.61132 9.00234L6.61163 9.00564L2.89256 8.68755C2.71789 8.67262 2.56785 8.81037 2.56785 8.98567V10.7542C2.56785 10.9039 2.67779 11.028 2.82133 11.05C2.81904 11.0351 2.81785 11.0198 2.81785 11.0042V9.23567C2.81785 9.06037 2.96789 8.92262 3.14256 8.93755L6.86163 9.25564L6.86132 9.25234L13.2156 9.79909C13.2337 9.80064 13.252 9.80053 13.2702 9.79876L14.2011 9.70786Z" fill="white"/>
<path d="M6.82762 11.3034L7.96048 23.3556C7.97472 23.5071 8.04614 23.6475 8.16021 23.7482L8.30436 23.8754C8.25217 23.795 8.2196 23.7026 8.21048 23.6056L7.07662 11.5429H10.8619V11.3035L6.82762 11.3034Z" fill="white"/>
<path d="M18.7814 11.0534H19.0217L19.1894 9.22076L22.0458 8.94184C22.0714 8.93934 22.0965 8.94014 22.1206 8.94385C22.097 8.78972 21.9562 8.67618 21.7958 8.69184L18.9736 8.96742L18.899 9.76809L18.7814 11.0534Z" fill="white"/>
<path d="M5.82494 3.40813L5.80067 3.16924L1.25113 2.94534C1.11448 2.93862 1 3.0476 1 3.18442V5.75152C1 5.88372 1.10717 5.99089 1.23937 5.99089H1.25V3.43442C1.25 3.2976 1.36448 3.18862 1.50113 3.19534L5.82494 3.40813Z" fill="white"/>
<path d="M33.8319 20.0892V9.19206H30.1875V6.80438H40.1511V9.19206H36.4888V20.0892H33.8319Z" fill="url(#paint12_linear_7198_113194)"/>
<path d="M44.4624 20.179C44.1752 20.179 43.846 20.1491 43.475 20.0892C43.104 20.0414 42.7449 19.9217 42.3979 19.7302C42.0627 19.5387 41.7815 19.2514 41.5541 18.8685C41.3387 18.4735 41.231 17.9349 41.231 17.2527V9.83835C41.231 9.2519 41.3207 8.7612 41.5002 8.36625C41.6798 7.97129 41.9191 7.66011 42.2183 7.43272C42.5175 7.20532 42.8467 7.04374 43.2057 6.948C43.5648 6.85225 43.9178 6.80438 44.2649 6.80438C45.1625 6.80438 45.9525 6.81635 46.6347 6.84028C47.3288 6.86422 47.9512 6.89414 48.5017 6.93005C49.0523 6.95398 49.5549 6.98989 50.0097 7.03776V9.26387H45.0548C44.6838 9.26387 44.3966 9.35363 44.1931 9.53316C43.9897 9.71268 43.8879 9.98795 43.8879 10.359V12.2799L49.148 12.4235V14.524L43.8879 14.6676V16.4987C43.8879 16.8099 43.9358 17.0553 44.0315 17.2348C44.1393 17.4023 44.2769 17.522 44.4444 17.5938C44.624 17.6537 44.8095 17.6836 45.001 17.6836H50.0097V19.9097C49.4831 19.9695 48.8967 20.0174 48.2504 20.0533C47.6161 20.0892 46.9698 20.1191 46.3115 20.1431C45.6652 20.167 45.0488 20.179 44.4624 20.179Z" fill="url(#paint13_linear_7198_113194)"/>
<path d="M51.7633 20.0892V6.80438H57.2568C57.7834 6.80438 58.2741 6.8702 58.7289 7.00186C59.1837 7.12154 59.5846 7.33697 59.9317 7.64815C60.2788 7.95932 60.5481 8.39018 60.7396 8.94073C60.943 9.49127 61.0448 10.1974 61.0448 11.0591C61.0448 11.6695 60.9849 12.1901 60.8652 12.621C60.7455 13.0518 60.584 13.4049 60.3805 13.6802C60.189 13.9555 59.9676 14.1769 59.7163 14.3444C59.4649 14.512 59.2076 14.6496 58.9443 14.7573L61.4218 20.0892H58.7109L56.5746 15.1702C56.431 15.1702 56.2634 15.1702 56.0719 15.1702C55.8924 15.1583 55.7069 15.1523 55.5154 15.1523C55.3239 15.1523 55.1324 15.1523 54.9409 15.1523C54.7494 15.1523 54.5759 15.1463 54.4203 15.1343V20.0892H51.7633ZM54.4203 13.0339H56.79C57.0294 13.0339 57.2448 13.004 57.4363 12.9441C57.6278 12.8843 57.7954 12.7826 57.939 12.6389C58.0826 12.4834 58.1903 12.2799 58.2621 12.0286C58.3459 11.7772 58.3878 11.4541 58.3878 11.0591C58.3878 10.6881 58.3459 10.3829 58.2621 10.1435C58.1903 9.89221 58.0826 9.70071 57.939 9.56906C57.7954 9.42544 57.6278 9.3297 57.4363 9.28182C57.2448 9.22198 57.0294 9.19206 56.79 9.19206H54.4203V13.0339Z" fill="url(#paint14_linear_7198_113194)"/>
<path d="M62.8392 20.0892V6.80438H65.4961V20.0892H62.8392Z" fill="url(#paint15_linear_7198_113194)"/>
<path d="M70.4038 20.0892V9.19206H66.7594V6.80438H76.723V9.19206H73.0607V20.0892H70.4038Z" fill="url(#paint16_linear_7198_113194)"/>
<path d="M83.0249 20.1969C82.1153 20.1969 81.3194 20.1132 80.6372 19.9456C79.955 19.7661 79.3806 19.4429 78.9138 18.9762C78.459 18.4974 78.1179 17.8152 77.8905 16.9296C77.6631 16.0439 77.5494 14.889 77.5494 13.4648C77.5494 12.0405 77.6631 10.8856 77.8905 9.99992C78.1299 9.1023 78.477 8.41412 78.9318 7.93539C79.3866 7.45665 79.955 7.12752 80.6372 6.948C81.3194 6.76847 82.1153 6.67871 83.0249 6.67871C83.9345 6.67871 84.7304 6.76847 85.4126 6.948C86.0948 7.12752 86.6633 7.45665 87.1181 7.93539C87.5729 8.41412 87.914 9.1023 88.1414 9.99992C88.3688 10.8856 88.4825 12.0405 88.4825 13.4648C88.4825 14.889 88.3688 16.0439 88.1414 16.9296C87.914 17.8152 87.5729 18.4974 87.1181 18.9762C86.6633 19.4429 86.0948 19.7661 85.4126 19.9456C84.7304 20.1132 83.9345 20.1969 83.0249 20.1969ZM83.0249 17.8093C83.5635 17.8093 84.0123 17.7494 84.3714 17.6297C84.7304 17.5101 85.0117 17.3006 85.2151 17.0014C85.4306 16.6902 85.5861 16.2534 85.6819 15.6909C85.7776 15.1164 85.8255 14.3743 85.8255 13.4648C85.8255 12.5073 85.7776 11.7413 85.6819 11.1668C85.5861 10.5924 85.4306 10.1555 85.2151 9.8563C85.0117 9.54513 84.7304 9.33568 84.3714 9.22797C84.0123 9.12025 83.5635 9.06639 83.0249 9.06639C82.5103 9.06639 82.0734 9.12025 81.7144 9.22797C81.3553 9.33568 81.0621 9.54513 80.8347 9.8563C80.6193 10.1555 80.4577 10.5924 80.35 11.1668C80.2543 11.7413 80.2064 12.5073 80.2064 13.4648C80.2064 14.3743 80.2483 15.1164 80.3321 15.6909C80.4278 16.2534 80.5834 16.6902 80.7988 17.0014C81.0142 17.3006 81.3015 17.5101 81.6605 17.6297C82.0316 17.7494 82.4864 17.8093 83.0249 17.8093Z" fill="url(#paint17_linear_7198_113194)"/>
<path d="M90.2637 20.0892V6.80438H95.7572C96.2838 6.80438 96.7745 6.8702 97.2293 7.00186C97.6841 7.12154 98.085 7.33697 98.4321 7.64815C98.7792 7.95932 99.0485 8.39018 99.24 8.94073C99.4434 9.49127 99.5452 10.1974 99.5452 11.0591C99.5452 11.6695 99.4853 12.1901 99.3656 12.621C99.2459 13.0518 99.0844 13.4049 98.8809 13.6802C98.6894 13.9555 98.468 14.1769 98.2167 14.3444C97.9653 14.512 97.708 14.6496 97.4447 14.7573L99.9221 20.0892H97.2113L95.075 15.1702C94.9314 15.1702 94.7638 15.1702 94.5723 15.1702C94.3928 15.1583 94.2073 15.1523 94.0158 15.1523C93.8243 15.1523 93.6328 15.1523 93.4413 15.1523C93.2498 15.1523 93.0763 15.1463 92.9207 15.1343V20.0892H90.2637ZM92.9207 13.0339H95.2904C95.5298 13.0339 95.7452 13.004 95.9367 12.9441C96.1282 12.8843 96.2957 12.7826 96.4394 12.6389C96.583 12.4834 96.6907 12.2799 96.7625 12.0286C96.8463 11.7772 96.8882 11.4541 96.8882 11.0591C96.8882 10.6881 96.8463 10.3829 96.7625 10.1435C96.6907 9.89221 96.583 9.70071 96.4394 9.56906C96.2957 9.42544 96.1282 9.3297 95.9367 9.28182C95.7452 9.22198 95.5298 9.19206 95.2904 9.19206H92.9207V13.0339Z" fill="url(#paint18_linear_7198_113194)"/>
<path d="M101.34 20.0892V6.80438H103.997V20.0892H101.34Z" fill="url(#paint19_linear_7198_113194)"/>
<path fill-rule="evenodd" clip-rule="evenodd" d="M87.1805 8.00324C86.76 7.6227 86.254 7.35462 85.6626 7.19897C84.9804 7.01945 84.1845 6.92969 83.2749 6.92969C82.3653 6.92969 81.5694 7.01945 80.8872 7.19897C80.205 7.3785 79.6366 7.70763 79.1818 8.18636C78.727 8.6651 78.3799 9.35327 78.1405 10.2509C77.9131 11.1366 77.7994 12.2915 77.7994 13.7157C77.7994 15.14 77.9131 16.2949 78.1405 17.1806C78.3519 18.0037 78.6614 18.6511 79.0692 19.1227C79.0161 19.0755 78.9643 19.0267 78.9138 18.9762C78.459 18.4974 78.1179 17.8152 77.8905 16.9296C77.6631 16.0439 77.5494 14.889 77.5494 13.4648C77.5494 12.0405 77.6631 10.8856 77.8905 9.99992C78.1299 9.1023 78.477 8.41412 78.9318 7.93539C79.3866 7.45665 79.955 7.12752 80.6372 6.948C81.3194 6.76847 82.1153 6.67871 83.0249 6.67871C83.9345 6.67871 84.7304 6.76847 85.4126 6.948C86.0948 7.12752 86.6633 7.45665 87.1181 7.93539C87.1392 7.95755 87.16 7.98017 87.1805 8.00324ZM84.3714 17.6297C84.0123 17.7494 83.5635 17.8093 83.0249 17.8093C82.4864 17.8093 82.0316 17.7494 81.6605 17.6297C81.4528 17.5605 81.2691 17.4612 81.1094 17.3319C81.3171 17.589 81.5842 17.7719 81.9105 17.8807C82.2816 18.0004 82.7364 18.0602 83.2749 18.0602C83.8135 18.0602 84.2623 18.0004 84.6214 17.8807C84.9804 17.761 85.2617 17.5516 85.4651 17.2524C85.6806 16.9412 85.8361 16.5044 85.9319 15.9418C86.0276 15.3674 86.0755 14.6253 86.0755 13.7157C86.0755 12.7583 86.0276 11.9923 85.9319 11.4178C85.8361 10.8433 85.6806 10.4065 85.4651 10.1073C85.3707 9.96285 85.2595 9.84034 85.1315 9.73974C85.1607 9.77686 85.1886 9.81572 85.2151 9.8563C85.4306 10.1555 85.5861 10.5924 85.6819 11.1668C85.7776 11.7413 85.8255 12.5073 85.8255 13.4648C85.8255 14.3743 85.7776 15.1164 85.6819 15.6909C85.5861 16.2534 85.4306 16.6902 85.2151 17.0014C85.0117 17.3006 84.7304 17.5101 84.3714 17.6297ZM33.8319 9.44304V20.0892H34.0819V9.44304H33.8319ZM30.4375 9.19206V7.05536H40.1511V6.80438H30.1875V9.19206H30.4375ZM42.0779 19.5044C41.8796 19.3345 41.705 19.1226 41.5541 18.8685C41.3387 18.4735 41.231 17.9349 41.231 17.2527V9.83835C41.231 9.2519 41.3207 8.7612 41.5002 8.36625C41.6798 7.97129 41.9191 7.66011 42.2183 7.43272C42.5175 7.20532 42.8467 7.04374 43.2057 6.948C43.5648 6.85225 43.9178 6.80438 44.2649 6.80438C45.1625 6.80438 45.9525 6.81635 46.6347 6.84028C47.3288 6.86422 47.9512 6.89414 48.5017 6.93005C49.0523 6.95398 49.5549 6.98989 50.0097 7.03776V7.26407C49.6226 7.22834 49.2033 7.20065 48.7517 7.18102C48.2012 7.14512 47.5788 7.1152 46.8847 7.09126C46.2025 7.06732 45.4125 7.05536 44.5149 7.05536C44.1678 7.05536 43.8148 7.10323 43.4557 7.19897C43.0967 7.29472 42.7675 7.45629 42.4683 7.68369C42.1691 7.91109 41.9298 8.22227 41.7502 8.61722C41.5707 9.01218 41.481 9.50288 41.481 10.0893V17.5037C41.481 18.1859 41.5887 18.7245 41.8041 19.1194C41.888 19.2608 41.9793 19.3891 42.0779 19.5044ZM44.1379 12.2867V12.5309L49.148 12.6677V12.4235L44.1379 12.2867ZM44.302 17.5164C44.3468 17.5465 44.3943 17.5723 44.4444 17.5938C44.624 17.6537 44.8095 17.6836 45.001 17.6836H50.0097V17.9346H45.251C45.0595 17.9346 44.874 17.9046 44.6944 17.8448C44.5373 17.7775 44.4065 17.668 44.302 17.5164ZM51.7633 20.0892V6.80438H57.2568C57.7834 6.80438 58.2741 6.8702 58.7289 7.00186C59.1837 7.12154 59.5846 7.33697 59.9317 7.64815C60.0077 7.71631 60.08 7.79022 60.1486 7.86988C59.8092 7.57441 59.4193 7.36873 58.9789 7.25283C58.5241 7.12118 58.0334 7.05536 57.5068 7.05536H52.0133V20.0892H51.7633ZM56.6836 15.4212L58.7109 20.0892H58.8519L56.8246 15.4212H56.6836ZM54.6703 13.0339H56.79C57.0294 13.0339 57.2448 13.004 57.4363 12.9441C57.6278 12.8843 57.7954 12.7826 57.939 12.6389C58.0826 12.4834 58.1903 12.2799 58.2621 12.0286C58.3459 11.7772 58.3878 11.4541 58.3878 11.0591C58.3878 10.6881 58.3459 10.3829 58.2621 10.1435C58.213 9.97174 58.1472 9.8279 58.0645 9.71202C58.1078 9.74438 58.1493 9.78038 58.189 9.82004C58.3326 9.95169 58.4403 10.1432 58.5121 10.3945C58.5959 10.6339 58.6378 10.9391 58.6378 11.3101C58.6378 11.7051 58.5959 12.0282 58.5121 12.2795C58.4403 12.5309 58.3326 12.7343 58.189 12.8899C58.0454 13.0335 57.8778 13.1353 57.6863 13.1951C57.4948 13.255 57.2794 13.2849 57.04 13.2849H54.6703V13.0339ZM62.8392 6.80438V20.0892H63.0892V7.05536H65.4961V6.80438H62.8392ZM70.4038 9.44304V20.0892H70.6538V9.44304H70.4038ZM76.723 7.05536V6.80438H66.7594V9.19206H67.0094V7.05536H76.723ZM90.2637 20.0892V6.80438H95.7572C96.2838 6.80438 96.7745 6.8702 97.2293 7.00186C97.6841 7.12154 98.085 7.33697 98.4321 7.64815C98.5081 7.71632 98.5804 7.79023 98.649 7.86989C98.3096 7.57442 97.9197 7.36873 97.4793 7.25283C97.0245 7.12118 96.5338 7.05536 96.0072 7.05536H90.5137V20.0892H90.2637ZM95.184 15.4212L97.2113 20.0892H97.3523L95.325 15.4212H95.184ZM93.1707 13.0339H95.2904C95.5298 13.0339 95.7452 13.004 95.9367 12.9441C96.1282 12.8843 96.2957 12.7826 96.4394 12.6389C96.583 12.4834 96.6907 12.2799 96.7625 12.0286C96.8463 11.7772 96.8882 11.4541 96.8882 11.0591C96.8882 10.6881 96.8463 10.3829 96.7625 10.1435C96.7134 9.97175 96.6476 9.82792 96.5649 9.71204C96.6083 9.7444 96.6497 9.78038 96.6894 9.82004C96.833 9.95169 96.9407 10.1432 97.0125 10.3945C97.0963 10.6339 97.1382 10.9391 97.1382 11.3101C97.1382 11.7051 97.0963 12.0282 97.0125 12.2795C96.9407 12.5309 96.833 12.7343 96.6894 12.8899C96.5457 13.0335 96.3782 13.1353 96.1867 13.1951C95.9952 13.255 95.7798 13.2849 95.5404 13.2849H93.1707V13.0339ZM101.34 6.80438V20.0892H101.59V7.05536H103.997V6.80438H101.34Z" fill="white"/>
<defs>
<linearGradient id="paint0_linear_7198_113194" x1="1" y1="13.2032" x2="23.4406" y2="13.2032" gradientUnits="userSpaceOnUse">
<stop stop-color="#5433FF"/>
<stop offset="0.5" stop-color="#20BDFF"/>
<stop offset="1" stop-color="#A5FECB"/>
</linearGradient>
<linearGradient id="paint1_linear_7198_113194" x1="1" y1="13.2032" x2="23.4406" y2="13.2032" gradientUnits="userSpaceOnUse">
<stop stop-color="#5433FF"/>
<stop offset="0.5" stop-color="#20BDFF"/>
<stop offset="1" stop-color="#A5FECB"/>
</linearGradient>
<linearGradient id="paint2_linear_7198_113194" x1="1" y1="13.2032" x2="23.4406" y2="13.2032" gradientUnits="userSpaceOnUse">
<stop stop-color="#5433FF"/>
<stop offset="0.5" stop-color="#20BDFF"/>
<stop offset="1" stop-color="#A5FECB"/>
</linearGradient>
<linearGradient id="paint3_linear_7198_113194" x1="1" y1="13.2032" x2="23.4406" y2="13.2032" gradientUnits="userSpaceOnUse">
<stop stop-color="#5433FF"/>
<stop offset="0.5" stop-color="#20BDFF"/>
<stop offset="1" stop-color="#A5FECB"/>
</linearGradient>
<linearGradient id="paint4_linear_7198_113194" x1="1" y1="13.2032" x2="23.4406" y2="13.2032" gradientUnits="userSpaceOnUse">
<stop stop-color="#5433FF"/>
<stop offset="0.5" stop-color="#20BDFF"/>
<stop offset="1" stop-color="#A5FECB"/>
</linearGradient>
<linearGradient id="paint5_linear_7198_113194" x1="1" y1="13.2032" x2="23.4406" y2="13.2032" gradientUnits="userSpaceOnUse">
<stop stop-color="#5433FF"/>
<stop offset="0.5" stop-color="#20BDFF"/>
<stop offset="1" stop-color="#A5FECB"/>
</linearGradient>
<linearGradient id="paint6_linear_7198_113194" x1="1" y1="13.2032" x2="23.4406" y2="13.2032" gradientUnits="userSpaceOnUse">
<stop stop-color="#5433FF"/>
<stop offset="0.5" stop-color="#20BDFF"/>
<stop offset="1" stop-color="#A5FECB"/>
</linearGradient>
<linearGradient id="paint7_linear_7198_113194" x1="1" y1="13.2032" x2="23.4406" y2="13.2032" gradientUnits="userSpaceOnUse">
<stop stop-color="#5433FF"/>
<stop offset="0.5" stop-color="#20BDFF"/>
<stop offset="1" stop-color="#A5FECB"/>
</linearGradient>
<linearGradient id="paint8_linear_7198_113194" x1="1" y1="13.2032" x2="23.4406" y2="13.2032" gradientUnits="userSpaceOnUse">
<stop stop-color="#5433FF"/>
<stop offset="0.5" stop-color="#20BDFF"/>
<stop offset="1" stop-color="#A5FECB"/>
</linearGradient>
<linearGradient id="paint9_linear_7198_113194" x1="1" y1="13.2032" x2="23.4406" y2="13.2032" gradientUnits="userSpaceOnUse">
<stop stop-color="#5433FF"/>
<stop offset="0.5" stop-color="#20BDFF"/>
<stop offset="1" stop-color="#A5FECB"/>
</linearGradient>
<linearGradient id="paint10_linear_7198_113194" x1="1" y1="13.2032" x2="23.4406" y2="13.2032" gradientUnits="userSpaceOnUse">
<stop stop-color="#5433FF"/>
<stop offset="0.5" stop-color="#20BDFF"/>
<stop offset="1" stop-color="#A5FECB"/>
</linearGradient>
<linearGradient id="paint11_linear_7198_113194" x1="1" y1="13.2032" x2="23.4406" y2="13.2032" gradientUnits="userSpaceOnUse">
<stop stop-color="#5433FF"/>
<stop offset="0.5" stop-color="#20BDFF"/>
<stop offset="1" stop-color="#A5FECB"/>
</linearGradient>
<linearGradient id="paint12_linear_7198_113194" x1="29.9003" y1="11.5259" x2="109.262" y2="11.5259" gradientUnits="userSpaceOnUse">
<stop stop-color="#5433FF"/>
<stop offset="0.5" stop-color="#20BDFF"/>
<stop offset="1" stop-color="#A5FECB"/>
</linearGradient>
<linearGradient id="paint13_linear_7198_113194" x1="29.9003" y1="11.5259" x2="109.262" y2="11.5259" gradientUnits="userSpaceOnUse">
<stop stop-color="#5433FF"/>
<stop offset="0.5" stop-color="#20BDFF"/>
<stop offset="1" stop-color="#A5FECB"/>
</linearGradient>
<linearGradient id="paint14_linear_7198_113194" x1="29.9003" y1="11.5259" x2="109.262" y2="11.5259" gradientUnits="userSpaceOnUse">
<stop stop-color="#5433FF"/>
<stop offset="0.5" stop-color="#20BDFF"/>
<stop offset="1" stop-color="#A5FECB"/>
</linearGradient>
<linearGradient id="paint15_linear_7198_113194" x1="29.9003" y1="11.5259" x2="109.262" y2="11.5259" gradientUnits="userSpaceOnUse">
<stop stop-color="#5433FF"/>
<stop offset="0.5" stop-color="#20BDFF"/>
<stop offset="1" stop-color="#A5FECB"/>
</linearGradient>
<linearGradient id="paint16_linear_7198_113194" x1="29.9003" y1="11.5259" x2="109.262" y2="11.5259" gradientUnits="userSpaceOnUse">
<stop stop-color="#5433FF"/>
<stop offset="0.5" stop-color="#20BDFF"/>
<stop offset="1" stop-color="#A5FECB"/>
</linearGradient>
<linearGradient id="paint17_linear_7198_113194" x1="29.9003" y1="11.5259" x2="109.262" y2="11.5259" gradientUnits="userSpaceOnUse">
<stop stop-color="#5433FF"/>
<stop offset="0.5" stop-color="#20BDFF"/>
<stop offset="1" stop-color="#A5FECB"/>
</linearGradient>
<linearGradient id="paint18_linear_7198_113194" x1="29.9003" y1="11.5259" x2="109.262" y2="11.5259" gradientUnits="userSpaceOnUse">
<stop stop-color="#5433FF"/>
<stop offset="0.5" stop-color="#20BDFF"/>
<stop offset="1" stop-color="#A5FECB"/>
</linearGradient>
<linearGradient id="paint19_linear_7198_113194" x1="29.9003" y1="11.5259" x2="109.262" y2="11.5259" gradientUnits="userSpaceOnUse">
<stop stop-color="#5433FF"/>
<stop offset="0.5" stop-color="#20BDFF"/>
<stop offset="1" stop-color="#A5FECB"/>
</linearGradient>
</defs>
</svg>
