<svg width="12" height="10" viewBox="0 0 12 10" fill="none" xmlns="http://www.w3.org/2000/svg">
<path d="M1.42296 2.18028C1.43789 2.03297 1.38173 1.88733 1.27172 1.78822L0.151242 0.438449V0.236816H3.63023L6.31934 6.13433L8.68352 0.236816L12 0.23684V0.438449L11.042 1.35694C10.9594 1.41987 10.9185 1.52339 10.9356 1.62582V8.37457C10.9185 8.477 10.9594 8.5805 11.042 8.64343L11.9776 9.56194V9.76355H7.27174V9.56194L8.24088 8.621C8.33616 8.52582 8.33616 8.49779 8.33616 8.35221V2.89716L5.64148 9.74112H5.27735L2.14003 2.89716V7.48409C2.11392 7.67693 2.17795 7.87111 2.3137 8.01054L3.57427 9.53949V9.74112H0V9.53949L1.26056 8.01054C1.3953 7.87086 1.45559 7.67536 1.42296 7.48409V2.18028Z" fill="#FBFBFA"/>
</svg>
