<svg width="12" height="10" viewBox="0 0 12 10" fill="none" xmlns="http://www.w3.org/2000/svg">
<path d="M11.5309 1.56641C11.123 1.74688 10.6871 1.86875 10.2277 1.925C10.6965 1.64375 11.0574 1.19844 11.2262 0.66875C10.7879 0.928906 10.3027 1.11875 9.78476 1.21953C9.36992 0.776562 8.77929 0.5 8.12773 0.5C6.87383 0.5 5.85898 1.51719 5.85898 2.77109C5.85898 2.94922 5.87773 3.12266 5.91758 3.28906C4.03086 3.19531 2.35742 2.29062 1.23945 0.914844C1.04492 1.25 0.932422 1.64141 0.932422 2.05625C0.932422 2.84375 1.3332 3.53984 1.94258 3.94766C1.56992 3.93828 1.21836 3.83516 0.913672 3.66406C0.913672 3.67344 0.913672 3.68281 0.913672 3.69219C0.913672 4.79375 1.69648 5.71016 2.73477 5.91875C2.54492 5.97031 2.34336 5.99844 2.13711 5.99844C1.9918 5.99844 1.84883 5.98437 1.71055 5.95625C1.99883 6.85859 2.83789 7.51484 3.83164 7.53359C3.05586 8.14297 2.07617 8.50625 1.01211 8.50625C0.829297 8.50625 0.648828 8.49453 0.470703 8.47344C1.47383 9.125 2.6668 9.5 3.94648 9.5C8.12305 9.5 10.4059 6.03828 10.4059 3.03594C10.4059 2.9375 10.4035 2.83906 10.3988 2.74297C10.8418 2.42187 11.2262 2.02109 11.5309 1.56641Z" fill="#FBFBFA"/>
</svg>
